<svg width="36" height="36" xmlns="http://www.w3.org/2000/svg"><g id="Symbols" stroke="none" stroke-width="1" fill="none" fill-rule="evenodd"><g id="UI/icons/color/google"><g id="Group" transform="translate(2 2)"><path d="M32.437 16.602c0-1.15-.106-2.258-.301-3.32H16.549v6.28h8.907c-.384 2.029-1.55 3.748-3.302 4.9v4.072h5.348c3.13-2.826 4.935-6.988 4.935-11.932Z" id="Shape" fill="#4285F4"/><path d="M16.55 32.467c4.468 0 8.214-1.453 10.952-3.933l-5.348-4.073c-1.482.974-3.378 1.55-5.605 1.55-4.31 0-7.958-2.855-9.26-6.693H1.76v4.206c2.723 5.306 8.32 8.943 14.79 8.943Z" id="Shape" fill="#34A853"/><path d="M7.29 19.318a9.591 9.591 0 0 1-.52-3.084c0-1.07.188-2.11.52-3.085V8.943H1.76a15.98 15.98 0 0 0 0 14.581l5.53-4.206Z" id="Shape" fill="#FBBC05"/><path d="M16.55 6.456c2.43 0 4.61.82 6.326 2.428l4.747-4.656C24.756 1.608 21.01 0 16.549 0 10.08 0 4.483 3.638 1.76 8.943l5.53 4.206c1.3-3.837 4.95-6.693 9.26-6.693Z" id="Shape" fill="#EA4335"/></g></g></g></svg>